<?xml version="1.0" encoding="utf-8"?>
<!-- Generator: Adobe Illustrator 19.0.0, SVG Export Plug-In . SVG Version: 6.00 Build 0)  -->
<svg version="1.1" id="Layer_1" xmlns="http://www.w3.org/2000/svg" xmlns:xlink="http://www.w3.org/1999/xlink" x="0px" y="0px"
	 viewBox="15 -26.8 100 123.8" style="enable-background:new 15 -26.8 100 123.8;" xml:space="preserve">
<style type="text/css">
	.st0{fill:#FFFFFF;}
</style>
<polygon class="st0" points="15,-26.8 15,-9.8 19.9,-9.8 19.9,-16.9 109.9,-16.9 109.9,-9.8 115,-9.8 115,-26.8 "/>
<polygon class="st0" points="71.4,24.1 71.4,27.6 103.1,27.6 103.1,-9.5 27.5,-9.5 27.5,27.6 56.7,27.6 56.7,24.1 31,24.1 31,-6.1 
	99.7,-6.1 99.7,24.1 "/>
<polygon class="st0" points="23,31.2 56.7,31.2 56.7,30.5 23.7,30.5 23.7,-12.8 106.6,-12.8 106.6,30.5 71.5,30.5 71.5,31.2 
	107.3,31.2 107.3,-13.5 23,-13.5 "/>
<path class="st0" d="M71.4,38.8c0,0,0.4,1.4-0.9,1.4c-1.3,0-0.9-1.6-0.9-1.6V22.7c0,0,0.1-2.5-2.3-3.8c4.7-1.2,8.3-5.4,8.3-10.5
	c0-6-4.8-10.8-10.8-10.8c-6,0-10.8,4.8-10.8,10.8c0,4.7,3,8.7,7.2,10.2c-1.2,0.5-2.3,1.7-2.3,4.2v16.1c0,0-10.9,5.4-10.9,15.8
	c0,10.6,4.3,13.7,8.6,14.4l0.1,3.1h19.8c0,0,0.3-6.8,2-9.7c1.7-2.9,4.2-4,4.2-30.2H71.4V38.8z M57.5,10.3l0.7-1.5H59V8.2
	c0-0.2,0-0.3,0-0.3h-1.6l0.7-1.5h1.1c0.3-1.7,1-3.1,2.1-4.1c1.1-1.1,2.5-1.6,4.2-1.6c1.2,0,2.5,0.4,3.9,1.1l-1.3,2.7
	c-1-0.6-1.9-1-2.8-1c-1.5,0-2.5,1-3,2.9h5.2l-0.7,1.5h-4.8l0,0.9h4.6L66,10.3h-3.7c0.5,2.2,1.5,3.4,3.2,3.4c1.1,0,2.2-0.4,3.3-1.3
	l0,3.2c-1,0.6-2.1,0.8-3.3,0.8c-1.8,0-3.2-0.6-4.3-1.7c-1-1-1.6-2.5-1.9-4.4L57.5,10.3L57.5,10.3z"/>
<path class="st0" d="M56.7,37.7v-2.1c0,0-14.8,5.5-14.7,8.2c-1.6,6.4,4.3,7.5,4.3,7.5s0.2-0.5,0.8-2.7C50.1,41,56.7,37.7,56.7,37.7z
	"/>
<path class="st0" d="M42.1,40.3c0-0.4,1.1-0.9,1.1-0.9l13.4-6.3v-0.7H42.7C38.3,33.4,41.2,39.8,42.1,40.3z"/>
</svg>
