<?xml version="1.0" encoding="utf-8"?>
<!-- Generator: Adobe Illustrator 19.0.0, SVG Export Plug-In . SVG Version: 6.00 Build 0)  -->
<svg version="1.1" id="Layer_1" xmlns="http://www.w3.org/2000/svg" xmlns:xlink="http://www.w3.org/1999/xlink" x="0px" y="0px"
	 viewBox="-22 24 24 24" style="enable-background:new -22 24 24 24;" xml:space="preserve">
<style type="text/css">
	.st0{fill:#FFFFFF;}
</style>
<path class="st0" d="M0,28h-20c-1.1,0-2,0.9-2,2v12c0,1.1,0.9,2,2,2H0c1.1,0,2-0.9,2-2V30C2,28.9,1.1,28,0,28z M-19,33.8
	c0-0.4,0.3-0.8,0.8-0.8h0.4v1.1H-19C-19,34.1-19,33.8-19,33.8z M-19,34.5h1.2v1H-19C-19,35.5-19,34.5-19,34.5z M-19,35.9h1.2V37
	h-0.4c-0.4,0-0.8-0.3-0.8-0.8C-19,36.2-19,35.9-19,35.9z M-16,41h-3v-1h3V41z M-15,36.2c0,0.4-0.3,0.8-0.8,0.8h-0.4v-1.1h1.2
	C-15,35.9-15,36.2-15,36.2z M-15,35.5h-1.2v-1h1.2V35.5z M-15,34.1h-1.6V37h-0.7v-4h1.6c0.4,0,0.8,0.3,0.8,0.8V34.1z M-11,41h-3v-1
	h3V41z M-10,34.5c0-1.4,1.1-2.5,2.5-2.5c0.5,0,0.9,0.1,1.3,0.4C-6.7,32.9-7,33.7-7,34.5c0,0.8,0.3,1.6,0.9,2.1
	C-6.6,36.9-7,37-7.5,37C-8.9,37-10,35.9-10,34.5z M-6,41h-3v-1h3V41z M-1,41h-3v-1h3V41z M-3.5,37C-4.9,37-6,35.9-6,34.5
	S-4.9,32-3.5,32c1.4,0,2.5,1.1,2.5,2.5S-2.1,37-3.5,37z"/>
</svg>
