<?xml version="1.0" encoding="utf-8"?>
<!-- Generator: Adobe Illustrator 19.0.0, SVG Export Plug-In . SVG Version: 6.00 Build 0)  -->
<svg version="1.1" id="Layer_1" xmlns="http://www.w3.org/2000/svg" xmlns:xlink="http://www.w3.org/1999/xlink" x="0px" y="0px"
	 viewBox="-10 6 48 60" style="enable-background:new -10 6 48 60;" xml:space="preserve">
<style type="text/css">
	.st0{fill:#FFFFFF;}
</style>
<g>
	<path class="st0" d="M34.7,36.1C34.7,36.1,34.7,36.1,34.7,36.1c-0.3-1.2-1.2-1.9-2.2-1.9c-0.2,0-0.4,0-0.6,0.1
		c-0.3,0.1-0.6,0.2-0.8,0.5c-0.5-0.5-1.3-0.7-2-0.5c-0.4,0.1-0.7,0.3-1,0.6c-0.5-0.3-1.1-0.4-1.7-0.3c-0.1,0-0.3,0.1-0.4,0.2
		l-1.4-6.6c-0.2-1.2-1.2-2-2.2-2c-0.2,0-0.4,0-0.6,0.1c-1.2,0.3-2,1.7-1.7,3.1l2.2,10.2c0,0,0,0,0,0l0.6,2.7l-4.4-2.1
		c-0.3-0.1-0.5-0.2-0.8-0.2c-0.9,0-1.8,0.6-2.2,1.6c-0.5,1.3,0.1,2.8,1.2,3.4c2.6,1.5,6.6,3.6,7,3.9c0.4,0.6,1.1,2.5,1.3,3.1
		c0,0.1,0.1,0.2,0.2,0.2c0,0,0,0,0.1,0l12-3.4c0.1,0,0.2-0.2,0.2-0.3L34.7,36.1z"/>
	<path class="st0" d="M5.1,33.1h9.1c0.1,0,0.2-0.1,0.2-0.2V22.4c0-0.1-0.1-0.2-0.2-0.2H5.1c-0.1,0-0.2,0.1-0.2,0.2v10.5
		C4.9,33,5,33.1,5.1,33.1z"/>
	<path class="st0" d="M-8,33.1h9.1c0.1,0,0.2-0.1,0.2-0.2V22.4c0-0.1-0.1-0.2-0.2-0.2H-8c-0.1,0-0.2,0.1-0.2,0.2v10.5
		C-8.2,33-8.1,33.1-8,33.1z"/>
	<path class="st0" d="M5.1,48.4h9.1c0.1,0,0.2-0.1,0.2-0.2V37.7c0-0.1-0.1-0.2-0.2-0.2H5.1c-0.1,0-0.2,0.1-0.2,0.2v10.5
		C4.9,48.3,5,48.4,5.1,48.4z"/>
	<path class="st0" d="M-8,48.4h9.1c0.1,0,0.2-0.1,0.2-0.2V37.7c0-0.1-0.1-0.2-0.2-0.2H-8c-0.1,0-0.2,0.1-0.2,0.2v10.5
		C-8.2,48.3-8.1,48.4-8,48.4z"/>
	<path class="st0" d="M18.2,18.1h9.1c0.1,0,0.2-0.1,0.2-0.2V7.4c0-0.1-0.1-0.2-0.2-0.2h-9.1c-0.1,0-0.2,0.1-0.2,0.2v10.5
		C17.9,18,18,18.1,18.2,18.1z"/>
	<path class="st0" d="M5.1,18.1h9.1c0.1,0,0.2-0.1,0.2-0.2V7.4c0-0.1-0.1-0.2-0.2-0.2H5.1C5,7.2,4.9,7.3,4.9,7.4v10.5
		C4.9,18,5,18.1,5.1,18.1z"/>
	<path class="st0" d="M-8,18.1h9.1c0.1,0,0.2-0.1,0.2-0.2V7.4c0-0.1-0.1-0.2-0.2-0.2H-8c-0.1,0-0.2,0.1-0.2,0.2v10.5
		C-8.2,18-8.1,18.1-8,18.1z"/>
	<path class="st0" d="M21.6,51.1H-8c-0.8,0-1.4,0.6-1.4,1.4S-8.8,54-8,54h29.6c0.8,0,1.4-0.6,1.4-1.4S22.4,51.1,21.6,51.1z"/>
	<path class="st0" d="M31.8,32.7c0.8,0,1.4-0.6,1.4-1.4V7.4c0-0.8-0.6-1.4-1.4-1.4s-1.4,0.6-1.4,1.4v23.8C30.3,32,31,32.7,31.8,32.7
		z"/>
	<path class="st0" d="M18.2,33.1h1.7l-0.8-3.5c-0.4-1.9,0.6-3.8,2.3-4.2c0.3-0.1,0.6-0.1,0.8-0.1c1.5,0,2.8,1.1,3.2,2.7l1.1,5.1h0.7
		c0.1,0,0.2-0.1,0.2-0.2V22.4c0-0.1-0.1-0.2-0.2-0.2h-9.1c-0.1,0-0.2,0.1-0.2,0.2v10.5C17.9,33,18,33.1,18.2,33.1z"/>
</g>
</svg>
